<svg width="49" height="48" viewBox="0 0 49 48" fill="none" xmlns="http://www.w3.org/2000/svg">
<g clip-path="url(#clip0_993_1274)">
<path d="M16.0647 33.9949C15.2537 33.1802 15.6765 33.4099 13.7202 32.8839C12.8326 32.6449 12.0523 32.1855 11.3467 31.6352L7.11218 42.0639C6.70245 43.0736 7.46778 44.1705 8.55232 44.1292L13.4701 43.9408L16.8525 47.5296C17.5991 48.3208 18.9095 48.0742 19.3193 47.0646L24.1773 35.1002C23.1655 35.6664 22.0427 35.9983 20.8817 35.9983C19.0617 35.9983 17.3518 35.2867 16.0647 33.9949ZM42.7282 42.0639L38.4937 31.6352C37.7881 32.1864 37.0078 32.6449 36.1202 32.8839C34.1537 33.4127 34.5849 33.1821 33.7757 33.9949C32.4886 35.2867 30.7778 35.9983 28.9578 35.9983C27.7967 35.9983 26.6739 35.6655 25.6622 35.1002L30.5202 47.0646C30.9299 48.0742 32.2413 48.3208 32.987 47.5296L36.3703 43.9408L41.2881 44.1292C42.3726 44.1705 43.1379 43.0727 42.7282 42.0639ZM31.5469 31.8733C32.973 30.4155 33.1363 30.5411 35.1673 29.9852C36.4637 29.6299 37.4773 28.5939 37.8245 27.2683C38.5226 24.6058 38.3415 24.9274 40.2465 22.9792C41.1957 22.0089 41.5662 20.5942 41.219 19.2686C40.5218 16.608 40.5209 16.9792 41.219 14.3158C41.5662 12.9902 41.1957 11.5755 40.2465 10.6052C38.3415 8.65706 38.5226 8.97769 37.8245 6.31613C37.4773 4.9905 36.4637 3.95456 35.1673 3.59925C32.5651 2.88581 32.8787 3.07238 30.9719 1.12331C30.0227 0.153002 28.6386 -0.226685 27.3422 0.128627C24.741 0.841127 25.1041 0.842064 22.4982 0.128627C21.2018 -0.226685 19.8177 0.152065 18.8685 1.12331C16.9635 3.07144 17.2771 2.88581 14.6741 3.59925C13.3777 3.95456 12.3641 4.9905 12.0169 6.31613C11.3197 8.97769 11.4998 8.65706 9.59485 10.6052C8.64565 11.5755 8.27418 12.9902 8.62232 14.3158C9.31952 16.9746 9.32045 16.6033 8.62232 19.2677C8.27512 20.5933 8.64565 22.008 9.59485 22.9792C11.4998 24.9274 11.3187 24.6058 12.0169 27.2683C12.3641 28.5939 13.3777 29.6299 14.6741 29.9852C16.7629 30.5571 16.9187 30.4671 18.2935 31.8733C19.5283 33.1361 21.4519 33.3621 22.9359 32.4189C23.5293 32.0405 24.2177 31.8396 24.9207 31.8396C25.6236 31.8396 26.312 32.0405 26.9054 32.4189C28.3885 33.3621 30.3121 33.1361 31.5469 31.8733ZM16.1151 16.4946C16.1151 11.523 20.0575 7.49269 24.9202 7.49269C29.7829 7.49269 33.7253 11.523 33.7253 16.4946C33.7253 21.4661 29.7829 25.4964 24.9202 25.4964C20.0575 25.4964 16.1151 21.4661 16.1151 16.4946Z" fill="#00A0C1"/>
</g>
<defs>
<clipPath id="clip0_993_1274">
<rect width="35.84" height="48" fill="white" transform="translate(7)"/>
</clipPath>
</defs>
</svg>
