<svg width="24" height="24" viewBox="0 0 24 24" fill="none" xmlns="http://www.w3.org/2000/svg">
<path d="M12.0026 5.84744C8.59756 5.84744 5.84956 8.59544 5.84956 12.0004C5.84956 15.4054 8.59756 18.1534 12.0026 18.1534C15.4076 18.1534 18.1556 15.4054 18.1556 12.0004C18.1556 8.59544 15.4076 5.84744 12.0026 5.84744ZM12.0026 15.9994C9.80056 15.9994 8.00356 14.2024 8.00356 12.0004C8.00356 9.79844 9.80056 8.00144 12.0026 8.00144C14.2046 8.00144 16.0016 9.79844 16.0016 12.0004C16.0016 14.2024 14.2046 15.9994 12.0026 15.9994ZM18.4076 4.16144C17.6126 4.16144 16.9706 4.80344 16.9706 5.59844C16.9706 6.39344 17.6126 7.03544 18.4076 7.03544C19.2026 7.03544 19.8446 6.39644 19.8446 5.59844C19.8448 5.40966 19.8078 5.22269 19.7357 5.04824C19.6635 4.87379 19.5577 4.71528 19.4242 4.5818C19.2907 4.44831 19.1322 4.34247 18.9578 4.27034C18.7833 4.19821 18.5963 4.1612 18.4076 4.16144ZM23.9966 12.0004C23.9966 10.3444 24.0116 8.70344 23.9186 7.05044C23.8256 5.13044 23.3876 3.42644 21.9836 2.02244C20.5766 0.615437 18.8756 0.180437 16.9556 0.0874372C15.2996 -0.00556279 13.6586 0.00943725 12.0056 0.00943725C10.3496 0.00943725 8.70856 -0.00556279 7.05556 0.0874372C5.13556 0.180437 3.43156 0.618437 2.02756 2.02244C0.620564 3.42944 0.185564 5.13044 0.0925642 7.05044C-0.000435834 8.70644 0.0145642 10.3474 0.0145642 12.0004C0.0145642 13.6534 -0.000435834 15.2974 0.0925642 16.9504C0.185564 18.8704 0.623564 20.5744 2.02756 21.9784C3.43456 23.3854 5.13556 23.8204 7.05556 23.9134C8.71156 24.0064 10.3526 23.9914 12.0056 23.9914C13.6616 23.9914 15.3026 24.0064 16.9556 23.9134C18.8756 23.8204 20.5796 23.3824 21.9836 21.9784C23.3906 20.5714 23.8256 18.8704 23.9186 16.9504C24.0146 15.2974 23.9966 13.6564 23.9966 12.0004ZM21.3566 19.0744C21.1376 19.6204 20.8736 20.0284 20.4506 20.4484C20.0276 20.8714 19.6226 21.1354 19.0766 21.3544C17.4986 21.9814 13.7516 21.8404 12.0026 21.8404C10.2536 21.8404 6.50356 21.9814 4.92556 21.3574C4.37956 21.1384 3.97156 20.8744 3.55156 20.4514C3.12856 20.0284 2.86456 19.6234 2.64556 19.0774C2.02156 17.4964 2.16256 13.7494 2.16256 12.0004C2.16256 10.2514 2.02156 6.50144 2.64556 4.92344C2.86456 4.37744 3.12856 3.96944 3.55156 3.54944C3.97456 3.12944 4.37956 2.86244 4.92556 2.64344C6.50356 2.01944 10.2536 2.16044 12.0026 2.16044C13.7516 2.16044 17.5016 2.01944 19.0796 2.64344C19.6256 2.86244 20.0336 3.12644 20.4536 3.54944C20.8766 3.97244 21.1406 4.37744 21.3596 4.92344C21.9836 6.50144 21.8426 10.2514 21.8426 12.0004C21.8426 13.7494 21.9836 17.4964 21.3566 19.0744Z" fill="#E61F5A"/>
</svg>
