<svg width="24" height="27" viewBox="0 0 24 27" fill="none" xmlns="http://www.w3.org/2000/svg">
<g clip-path="url(#clip0_964_18300)">
<path d="M23.709 2.21621C23.5741 2.07651 23.4036 1.97979 23.2176 1.93742C23.0315 1.89504 22.8378 1.90878 22.659 1.97701L0.659024 10.297C0.469292 10.3719 0.305944 10.505 0.190675 10.6786C0.0754064 10.8523 0.0136719 11.0584 0.0136719 11.2694C0.0136719 11.4805 0.0754064 11.6865 0.190675 11.8602C0.305944 12.0339 0.469292 12.167 0.659024 12.2418L10.259 16.2354L14.099 26.2194C14.1712 26.4081 14.2948 26.5706 14.4548 26.6871C14.6147 26.8035 14.8039 26.8687 14.999 26.8746C15.2011 26.8703 15.3972 26.8024 15.5614 26.6799C15.7257 26.5573 15.8503 26.3859 15.919 26.1882L23.919 3.30821C23.9872 3.12421 24.0036 2.92386 23.9664 2.73052C23.9292 2.53718 23.84 2.35881 23.709 2.21621V2.21621ZM14.999 22.9226L12.209 15.6426L16.999 10.661L15.589 9.19461L10.759 14.2178L3.79902 11.2746L21.329 4.69141L14.999 22.9226Z" fill="#8EC2F2"/>
</g>
<defs>
<clipPath id="clip0_964_18300">
<rect width="24" height="26" fill="white" transform="translate(0 0.874634)"/>
</clipPath>
</defs>
</svg>
