<svg width="24" height="20" viewBox="0 0 24 20" fill="none" xmlns="http://www.w3.org/2000/svg">
<g clip-path="url(#clip0_964_18249)">
<path d="M24.0014 2.46548C23.1198 2.85141 22.1603 3.12917 21.1721 3.23735C22.1981 2.61879 22.9665 1.64156 23.333 0.489007C22.3702 1.07022 21.3155 1.47778 20.2156 1.6936C19.7559 1.19488 19.1999 0.797581 18.5823 0.526453C17.9646 0.255325 17.2986 0.116179 16.6257 0.117688C13.903 0.117688 11.7133 2.3573 11.7133 5.10564C11.7133 5.49158 11.7594 5.87752 11.8343 6.24884C7.75747 6.03248 4.12146 4.05601 1.70417 1.0299C1.26372 1.79335 1.0329 2.66261 1.03575 3.54727C1.03575 5.27814 1.90297 6.80435 3.22542 7.70195C2.44608 7.6708 1.68499 7.45342 1.00405 7.06749V7.12889C1.00405 9.5527 2.69241 11.5613 4.94259 12.0233C4.52009 12.1347 4.08547 12.1916 3.64895 12.1929C3.32914 12.1929 3.02662 12.1607 2.72122 12.1168C3.34355 14.0933 5.15579 15.5289 7.31378 15.5757C5.62542 16.9177 3.51066 17.7071 1.21438 17.7071C0.802374 17.7071 0.422061 17.6925 0.0273438 17.6457C2.20549 19.0637 4.78989 19.8824 7.57308 19.8824C16.6084 19.8824 21.5524 12.2864 21.5524 5.69332C21.5524 5.47696 21.5524 5.2606 21.538 5.04424C22.4946 4.33377 23.333 3.45371 24.0014 2.46548Z" fill="#21A6DF"/>
</g>
<defs>
<clipPath id="clip0_964_18249">
<rect width="24" height="19.7647" fill="white" transform="translate(0 0.117676)"/>
</clipPath>
</defs>
</svg>
